<svg width="17" height="17" viewBox="0 0 17 17" fill="none" xmlns="http://www.w3.org/2000/svg">
<path fill-rule="evenodd" clip-rule="evenodd" d="M10.7342 10.0833H11.4583L16.0325 14.6667L14.6667 16.0325L10.0833 11.4583V10.7342L9.83583 10.4775C8.79083 11.3758 7.43417 11.9167 5.95833 11.9167C2.6675 11.9167 0 9.24916 0 5.95833C0 2.6675 2.6675 0 5.95833 0C9.24917 0 11.9167 2.6675 11.9167 5.95833C11.9167 7.43417 11.3758 8.79083 10.4775 9.83583L10.7342 10.0833ZM1.83334 5.95833C1.83334 8.24083 3.67584 10.0833 5.95833 10.0833C8.24083 10.0833 10.0833 8.24083 10.0833 5.95833C10.0833 3.67583 8.24083 1.83333 5.95833 1.83333C3.67584 1.83333 1.83334 3.67583 1.83334 5.95833Z" fill="#0442D0"/>
</svg>
